<mxfile host="65bd71144e">
    <diagram id="coZF5f3TOPct5JLmNMV9" name="Page-1">
        <mxGraphModel dx="1285" dy="1653" grid="1" gridSize="10" guides="1" tooltips="1" connect="1" arrows="1" fold="1" page="1" pageScale="1" pageWidth="827" pageHeight="1169" math="0" shadow="0">
            <root>
                <mxCell id="0"/>
                <mxCell id="1" parent="0"/>
                <object label="&lt;p style=&quot;margin: 0px ; margin-top: 4px ; text-align: center&quot;&gt;&lt;b&gt;Vivienda&lt;/b&gt;&lt;/p&gt;&lt;hr size=&quot;1&quot;&gt;&lt;p style=&quot;margin: 0px ; margin-left: 4px&quot;&gt;&lt;span&gt;- direccion: string&lt;/span&gt;&lt;br&gt;&lt;/p&gt;&lt;p style=&quot;margin: 0px ; margin-left: 4px&quot;&gt;- superficie: float&lt;/p&gt;&lt;p style=&quot;margin: 0px ; margin-left: 4px&quot;&gt;- nro_habitaciones: integer&lt;/p&gt;&lt;hr size=&quot;1&quot;&gt;&lt;p style=&quot;margin: 0px ; margin-left: 4px&quot;&gt;+ show()&lt;/p&gt;" Casa="" id="M3-lLsWGSmPZNytgOBwi-1">
                    <mxCell style="verticalAlign=top;align=left;overflow=fill;fontSize=12;fontFamily=Helvetica;html=1;" parent="1" vertex="1">
                        <mxGeometry x="220" y="-160" width="160" height="150" as="geometry"/>
                    </mxCell>
                </object>
                <mxCell id="M3-lLsWGSmPZNytgOBwi-21" style="edgeStyle=orthogonalEdgeStyle;orthogonalLoop=1;jettySize=auto;html=1;startArrow=diamondThin;startFill=1;startSize=14;endArrow=open;endSize=12;align=left;" parent="1" source="M3-lLsWGSmPZNytgOBwi-8" target="M3-lLsWGSmPZNytgOBwi-6" edge="1">
                    <mxGeometry relative="1" as="geometry"/>
                </mxCell>
                <mxCell id="D4q86nAJt8562JSuOjXB-3" value="0..1" style="edgeLabel;html=1;align=center;verticalAlign=middle;resizable=0;points=[];" parent="M3-lLsWGSmPZNytgOBwi-21" vertex="1" connectable="0">
                    <mxGeometry x="0.2137" y="-4" relative="1" as="geometry">
                        <mxPoint x="-26" y="106" as="offset"/>
                    </mxGeometry>
                </mxCell>
                <mxCell id="M3-lLsWGSmPZNytgOBwi-22" style="edgeStyle=orthogonalEdgeStyle;orthogonalLoop=1;jettySize=auto;html=1;entryX=0.5;entryY=0;entryDx=0;entryDy=0;startArrow=diamondThin;startFill=1;startSize=14;endArrow=open;endSize=12;align=left;exitX=0.25;exitY=1;exitDx=0;exitDy=0;" parent="1" source="M3-lLsWGSmPZNytgOBwi-8" target="M3-lLsWGSmPZNytgOBwi-19" edge="1">
                    <mxGeometry relative="1" as="geometry"/>
                </mxCell>
                <mxCell id="m-5z6lDCxOTHbxUdVZSe-1" value="0..1" style="shape=connector;rounded=1;orthogonalLoop=1;jettySize=auto;html=1;exitX=0.75;exitY=1;exitDx=0;exitDy=0;entryX=0;entryY=0.5;entryDx=0;entryDy=0;labelBackgroundColor=default;fontFamily=Helvetica;fontSize=11;fontColor=default;startArrow=diamondThin;startFill=1;endArrow=open;startSize=14;endSize=12;strokeColor=default;elbow=vertical;" parent="1" source="M3-lLsWGSmPZNytgOBwi-8" target="woEzXTU2Y_-W0Ke4EJwe-3" edge="1">
                    <mxGeometry x="0.8098" y="-18" relative="1" as="geometry">
                        <Array as="points">
                            <mxPoint x="-80" y="368"/>
                        </Array>
                        <mxPoint y="-1" as="offset"/>
                    </mxGeometry>
                </mxCell>
                <object label="&lt;p style=&quot;margin: 0px ; margin-top: 4px ; text-align: center&quot;&gt;&lt;b&gt;Finca&lt;/b&gt;&lt;/p&gt;&lt;hr size=&quot;1&quot;&gt;&lt;p style=&quot;margin: 0px ; margin-left: 4px&quot;&gt;- nombre: stirng&lt;/p&gt;&lt;p style=&quot;margin: 0px ; margin-left: 4px&quot;&gt;- tipo: [rustico, urbano]&lt;/p&gt;&lt;p style=&quot;margin: 0px ; margin-left: 4px&quot;&gt;&amp;nbsp;direccion: string&lt;/p&gt;&lt;p style=&quot;margin: 0px ; margin-left: 4px&quot;&gt;- superficie: float&lt;/p&gt;&lt;hr size=&quot;1&quot;&gt;&lt;p style=&quot;margin: 0px ; margin-left: 4px&quot;&gt;+ show()&lt;/p&gt;&lt;p style=&quot;margin: 0px ; margin-left: 4px&quot;&gt;+ get_valor()&lt;/p&gt;&lt;p style=&quot;margin: 0px ; margin-left: 4px&quot;&gt;&lt;br&gt;&lt;/p&gt;" Casa="" id="M3-lLsWGSmPZNytgOBwi-8">
                    <mxCell style="verticalAlign=top;align=left;overflow=fill;fontSize=12;fontFamily=Helvetica;html=1;" parent="1" vertex="1">
                        <mxGeometry x="-280" y="-160" width="160" height="150" as="geometry"/>
                    </mxCell>
                </object>
                <mxCell id="M3-lLsWGSmPZNytgOBwi-24" value="Extends" style="edgeStyle=elbowEdgeStyle;orthogonalLoop=1;jettySize=auto;elbow=vertical;html=1;entryX=0.5;entryY=0;entryDx=0;entryDy=0;startArrow=block;startFill=0;startSize=14;endArrow=none;endSize=12;align=left;endFill=0;exitX=0.25;exitY=1;exitDx=0;exitDy=0;" parent="1" source="2" target="M3-lLsWGSmPZNytgOBwi-8" edge="1">
                    <mxGeometry x="0.1795" relative="1" as="geometry">
                        <mxPoint x="10" y="-340" as="sourcePoint"/>
                        <Array as="points">
                            <mxPoint x="-120" y="-250"/>
                        </Array>
                        <mxPoint x="1" as="offset"/>
                    </mxGeometry>
                </mxCell>
                <mxCell id="M3-lLsWGSmPZNytgOBwi-25" value="Extends" style="edgeStyle=elbowEdgeStyle;orthogonalLoop=1;jettySize=auto;elbow=vertical;html=1;entryX=0.5;entryY=0;entryDx=0;entryDy=0;startArrow=block;startFill=0;startSize=14;endArrow=none;endSize=12;align=left;endFill=0;exitX=0.75;exitY=1;exitDx=0;exitDy=0;" parent="1" source="2" target="M3-lLsWGSmPZNytgOBwi-1" edge="1">
                    <mxGeometry x="-0.1282" relative="1" as="geometry">
                        <mxPoint x="90" y="-340" as="sourcePoint"/>
                        <Array as="points">
                            <mxPoint x="200" y="-250"/>
                            <mxPoint x="90" y="-330"/>
                        </Array>
                        <mxPoint x="-1" as="offset"/>
                    </mxGeometry>
                </mxCell>
                <mxCell id="8" value="0..1" style="edgeStyle=none;html=1;exitX=0.5;exitY=1;exitDx=0;exitDy=0;entryX=0.5;entryY=0;entryDx=0;entryDy=0;startArrow=diamondThin;startFill=0;endArrow=open;endFill=0;strokeWidth=1;targetPerimeterSpacing=2;endSize=12;startSize=14;" edge="1" parent="1" source="M3-lLsWGSmPZNytgOBwi-23" target="2">
                    <mxGeometry relative="1" as="geometry">
                        <mxPoint as="offset"/>
                    </mxGeometry>
                </mxCell>
                <object label="&lt;p style=&quot;margin: 0px ; margin-top: 4px ; text-align: center&quot;&gt;&lt;b&gt;Propietario&lt;/b&gt;&lt;/p&gt;&lt;hr size=&quot;1&quot;&gt;&lt;p style=&quot;margin: 0px ; margin-left: 4px&quot;&gt;&lt;span&gt;- nif: String&lt;/span&gt;&lt;br&gt;&lt;/p&gt;&lt;p style=&quot;margin: 0px ; margin-left: 4px&quot;&gt;&lt;span&gt;- nombre: String&lt;/span&gt;&lt;/p&gt;&lt;p style=&quot;margin: 0px ; margin-left: 4px&quot;&gt;- direccion: String&lt;/p&gt;&lt;p style=&quot;margin: 0px ; margin-left: 4px&quot;&gt;- propiedades: ArrayList&amp;lt;Propiedad&amp;gt;&lt;/p&gt;&lt;hr size=&quot;1&quot;&gt;&lt;p style=&quot;margin: 0px ; margin-left: 4px&quot;&gt;+ add_propiedad(Propiedad): void&lt;/p&gt;&lt;p style=&quot;margin: 0px ; margin-left: 4px&quot;&gt;+ show(): String&lt;/p&gt;&lt;p style=&quot;margin: 0px ; margin-left: 4px&quot;&gt;+ get_valor(): Integer&lt;/p&gt;" Casa="" id="M3-lLsWGSmPZNytgOBwi-23">
                    <mxCell style="verticalAlign=top;align=left;overflow=fill;fontSize=12;fontFamily=Helvetica;html=1;" parent="1" vertex="1">
                        <mxGeometry x="-65" y="-760" width="210" height="160" as="geometry"/>
                    </mxCell>
                </object>
                <object label="&lt;p style=&quot;margin: 0px ; margin-top: 4px ; text-align: center&quot;&gt;&lt;b&gt;Adosado&lt;/b&gt;&lt;/p&gt;&lt;p style=&quot;margin: 0px ; margin-left: 4px&quot;&gt;&lt;br&gt;&lt;/p&gt;&lt;p style=&quot;margin: 0px ; margin-left: 4px&quot;&gt;&lt;br&gt;&lt;/p&gt;&lt;hr size=&quot;1&quot;&gt;&lt;p style=&quot;margin: 0px ; margin-left: 4px&quot;&gt;+ show()&lt;/p&gt;&lt;p style=&quot;margin: 0px ; margin-left: 4px&quot;&gt;+ get_valor()&lt;/p&gt;" Casa="" id="M3-lLsWGSmPZNytgOBwi-2">
                    <mxCell style="verticalAlign=top;align=left;overflow=fill;fontSize=12;fontFamily=Helvetica;html=1;" parent="1" vertex="1">
                        <mxGeometry x="220" y="80" width="160" height="140" as="geometry"/>
                    </mxCell>
                </object>
                <mxCell id="M3-lLsWGSmPZNytgOBwi-17" value="" style="edgeStyle=orthogonalEdgeStyle;orthogonalLoop=1;jettySize=auto;html=1;startArrow=diamondThin;startFill=1;startSize=14;endArrow=open;endSize=12;align=left;entryX=0.304;entryY=0.02;entryDx=0;entryDy=0;exitX=0.75;exitY=1;exitDx=0;exitDy=0;entryPerimeter=0;" parent="1" source="M3-lLsWGSmPZNytgOBwi-7" target="woEzXTU2Y_-W0Ke4EJwe-2" edge="1">
                    <mxGeometry relative="1" as="geometry">
                        <mxPoint x="80" y="160" as="targetPoint"/>
                    </mxGeometry>
                </mxCell>
                <mxCell id="USNUs2RwjlwWKyY22RhR-1" value="0..1" style="edgeLabel;html=1;align=center;verticalAlign=middle;resizable=0;points=[];" parent="M3-lLsWGSmPZNytgOBwi-17" vertex="1" connectable="0">
                    <mxGeometry x="0.2979" y="-4" relative="1" as="geometry">
                        <mxPoint x="24" y="-6" as="offset"/>
                    </mxGeometry>
                </mxCell>
                <mxCell id="M3-lLsWGSmPZNytgOBwi-18" style="edgeStyle=orthogonalEdgeStyle;orthogonalLoop=1;jettySize=auto;html=1;entryX=0.75;entryY=0;entryDx=0;entryDy=0;startArrow=diamondThin;startFill=1;startSize=14;endArrow=open;endSize=12;align=left;exitX=0.25;exitY=1;exitDx=0;exitDy=0;" parent="1" source="M3-lLsWGSmPZNytgOBwi-7" target="M3-lLsWGSmPZNytgOBwi-6" edge="1">
                    <mxGeometry relative="1" as="geometry">
                        <Array as="points">
                            <mxPoint x="20" y="260"/>
                            <mxPoint x="-160" y="260"/>
                        </Array>
                    </mxGeometry>
                </mxCell>
                <mxCell id="D4q86nAJt8562JSuOjXB-2" value="0..1" style="edgeLabel;html=1;align=center;verticalAlign=middle;resizable=0;points=[];" parent="M3-lLsWGSmPZNytgOBwi-18" vertex="1" connectable="0">
                    <mxGeometry x="0.3215" y="3" relative="1" as="geometry">
                        <mxPoint x="-2" y="-13" as="offset"/>
                    </mxGeometry>
                </mxCell>
                <object label="&lt;p style=&quot;margin: 0px ; margin-top: 4px ; text-align: center&quot;&gt;&lt;b&gt;Chalet&lt;/b&gt;&lt;/p&gt;&lt;hr size=&quot;1&quot;&gt;&lt;p style=&quot;margin: 0px ; margin-left: 4px&quot;&gt;&lt;br&gt;&lt;/p&gt;&lt;p style=&quot;margin: 0px ; margin-left: 4px&quot;&gt;&lt;br&gt;&lt;/p&gt;&lt;hr size=&quot;1&quot;&gt;&lt;p style=&quot;margin: 0px ; margin-left: 4px&quot;&gt;+ show()&lt;/p&gt;&lt;p style=&quot;margin: 0px ; margin-left: 4px&quot;&gt;+ get_valor()&lt;/p&gt;&lt;p style=&quot;margin: 0px ; margin-left: 4px&quot;&gt;&lt;br&gt;&lt;/p&gt;" Casa="" id="M3-lLsWGSmPZNytgOBwi-7">
                    <mxCell style="verticalAlign=top;align=left;overflow=fill;fontSize=12;fontFamily=Helvetica;html=1;" parent="1" vertex="1">
                        <mxGeometry x="-20" y="80" width="160" height="140" as="geometry"/>
                    </mxCell>
                </object>
                <object label="&lt;p style=&quot;margin: 0px ; margin-top: 4px ; text-align: center&quot;&gt;&lt;b&gt;Piscina&lt;/b&gt;&lt;/p&gt;&lt;hr size=&quot;1&quot;&gt;&lt;p style=&quot;margin: 0px ; margin-left: 4px&quot;&gt;+ volumen: float&lt;/p&gt;&lt;p style=&quot;margin: 0px ; margin-left: 4px&quot;&gt;+ cloracion_salina: boolean&lt;/p&gt;&lt;p style=&quot;margin: 0px ; margin-left: 4px&quot;&gt;+ valor: integer&lt;/p&gt;&lt;p style=&quot;margin: 0px ; margin-left: 4px&quot;&gt;&lt;br&gt;&lt;/p&gt;&lt;hr size=&quot;1&quot;&gt;&lt;p style=&quot;margin: 0px ; margin-left: 4px&quot;&gt;+ show()&lt;/p&gt;&lt;p style=&quot;margin: 0px ; margin-left: 4px&quot;&gt;+ get_valor()&lt;/p&gt;" Casa="" id="M3-lLsWGSmPZNytgOBwi-6">
                    <mxCell style="verticalAlign=top;align=left;overflow=fill;fontSize=12;fontFamily=Helvetica;html=1;" parent="1" vertex="1">
                        <mxGeometry x="-280" y="310" width="160" height="140" as="geometry"/>
                    </mxCell>
                </object>
                <object label="&lt;p style=&quot;margin: 0px ; margin-top: 4px ; text-align: center&quot;&gt;&lt;b&gt;Huerto&lt;/b&gt;&lt;/p&gt;&lt;hr size=&quot;1&quot;&gt;&lt;p style=&quot;margin: 0px ; margin-left: 4px&quot;&gt;- superficie: float&lt;/p&gt;&lt;p style=&quot;margin: 0px ; margin-left: 4px&quot;&gt;- riego_por_goteo: Boolean&lt;/p&gt;&lt;p style=&quot;margin: 0px ; margin-left: 4px&quot;&gt;&lt;br&gt;&lt;/p&gt;&lt;p style=&quot;margin: 0px ; margin-left: 4px&quot;&gt;&lt;br&gt;&lt;/p&gt;&lt;hr size=&quot;1&quot;&gt;&lt;p style=&quot;margin: 0px ; margin-left: 4px&quot;&gt;+ show()&lt;/p&gt;&lt;p style=&quot;margin: 0px ; margin-left: 4px&quot;&gt;+ get_valor()&lt;/p&gt;&lt;p style=&quot;margin: 0px ; margin-left: 4px&quot;&gt;&lt;br&gt;&lt;/p&gt;" Casa="" id="M3-lLsWGSmPZNytgOBwi-19">
                    <mxCell style="verticalAlign=top;align=left;overflow=fill;fontSize=12;fontFamily=Helvetica;html=1;" parent="1" vertex="1">
                        <mxGeometry x="-480" y="80" width="160" height="140" as="geometry"/>
                    </mxCell>
                </object>
                <mxCell id="M3-lLsWGSmPZNytgOBwi-4" value="Extends" style="endArrow=block;endSize=16;endFill=0;html=1;exitX=0.5;exitY=0;exitDx=0;exitDy=0;edgeStyle=elbowEdgeStyle;elbow=vertical;entryX=0.5;entryY=1;entryDx=0;entryDy=0;" parent="1" source="M3-lLsWGSmPZNytgOBwi-2" target="M3-lLsWGSmPZNytgOBwi-1" edge="1">
                    <mxGeometry width="160" relative="1" as="geometry">
                        <mxPoint x="-100" y="160" as="sourcePoint"/>
                        <mxPoint x="187" y="6" as="targetPoint"/>
                        <Array as="points"/>
                    </mxGeometry>
                </mxCell>
                <mxCell id="M3-lLsWGSmPZNytgOBwi-11" value="Extends" style="endArrow=block;endSize=16;endFill=0;html=1;edgeStyle=elbowEdgeStyle;elbow=vertical;exitX=0.75;exitY=0;exitDx=0;exitDy=0;entryX=0.25;entryY=1;entryDx=0;entryDy=0;" parent="1" source="M3-lLsWGSmPZNytgOBwi-7" target="M3-lLsWGSmPZNytgOBwi-1" edge="1">
                    <mxGeometry width="160" relative="1" as="geometry">
                        <mxPoint x="80" y="-50" as="sourcePoint"/>
                        <mxPoint x="230" y="-10" as="targetPoint"/>
                    </mxGeometry>
                </mxCell>
                <mxCell id="M3-lLsWGSmPZNytgOBwi-12" value="0..1" style="endArrow=open;html=1;endSize=12;startArrow=diamondThin;startSize=14;startFill=1;align=left;verticalAlign=bottom;exitX=1;exitY=0.5;exitDx=0;exitDy=0;edgeStyle=elbowEdgeStyle;entryX=0;entryY=0.5;entryDx=0;entryDy=0;" parent="1" source="M3-lLsWGSmPZNytgOBwi-8" target="M3-lLsWGSmPZNytgOBwi-1" edge="1">
                    <mxGeometry x="0.7059" relative="1" as="geometry">
                        <mxPoint x="-350" y="340" as="sourcePoint"/>
                        <mxPoint x="-190" y="340" as="targetPoint"/>
                        <mxPoint as="offset"/>
                    </mxGeometry>
                </mxCell>
                <mxCell id="M3-lLsWGSmPZNytgOBwi-13" value="1" style="endArrow=open;html=1;endSize=12;startArrow=diamond;startSize=14;startFill=1;edgeStyle=elbowEdgeStyle;align=left;verticalAlign=bottom;entryX=1;entryY=0.5;entryDx=0;entryDy=0;elbow=vertical;exitX=0.25;exitY=1;exitDx=0;exitDy=0;" parent="1" source="M3-lLsWGSmPZNytgOBwi-2" target="woEzXTU2Y_-W0Ke4EJwe-3" edge="1">
                    <mxGeometry x="0.3333" relative="1" as="geometry">
                        <mxPoint x="320" y="190" as="sourcePoint"/>
                        <mxPoint x="-190" y="340" as="targetPoint"/>
                        <mxPoint as="offset"/>
                        <Array as="points">
                            <mxPoint x="230" y="368"/>
                        </Array>
                    </mxGeometry>
                </mxCell>
                <mxCell id="M3-lLsWGSmPZNytgOBwi-26" value="0..1" style="text;html=1;resizable=0;points=[];autosize=1;align=left;verticalAlign=top;spacingTop=-4;" parent="1" vertex="1">
                    <mxGeometry x="-390" y="50" width="40" height="20" as="geometry"/>
                </mxCell>
                <object label="&lt;p style=&quot;margin: 0px ; margin-top: 4px ; text-align: center&quot;&gt;&lt;b&gt;Apartamento&lt;/b&gt;&lt;/p&gt;&lt;hr size=&quot;1&quot;&gt;&lt;p style=&quot;margin: 0px ; margin-left: 4px&quot;&gt;- balcon: boolean&lt;/p&gt;&lt;p style=&quot;margin: 0px ; margin-left: 4px&quot;&gt;&lt;br&gt;&lt;/p&gt;&lt;hr size=&quot;1&quot;&gt;&lt;p style=&quot;margin: 0px ; margin-left: 4px&quot;&gt;+ show()&lt;/p&gt;" Casa="" id="USNUs2RwjlwWKyY22RhR-16">
                    <mxCell style="verticalAlign=top;align=left;overflow=fill;fontSize=12;fontFamily=Helvetica;html=1;" parent="1" vertex="1">
                        <mxGeometry x="460" y="80" width="160" height="140" as="geometry"/>
                    </mxCell>
                </object>
                <mxCell id="USNUs2RwjlwWKyY22RhR-18" style="edgeStyle=elbowEdgeStyle;shape=connector;rounded=1;orthogonalLoop=1;jettySize=auto;elbow=vertical;html=1;exitX=1;exitY=0.5;exitDx=0;exitDy=0;labelBackgroundColor=default;fontFamily=Helvetica;fontSize=11;fontColor=default;startArrow=none;startFill=0;endArrow=open;startSize=14;endSize=12;strokeColor=default;" parent="1" source="M3-lLsWGSmPZNytgOBwi-2" target="M3-lLsWGSmPZNytgOBwi-2" edge="1">
                    <mxGeometry relative="1" as="geometry"/>
                </mxCell>
                <mxCell id="USNUs2RwjlwWKyY22RhR-20" value="Extends" style="endArrow=block;endSize=16;endFill=0;html=1;rounded=1;labelBackgroundColor=default;fontFamily=Helvetica;fontSize=11;fontColor=default;strokeColor=default;shape=connector;elbow=vertical;entryX=0.75;entryY=1;entryDx=0;entryDy=0;exitX=0.5;exitY=0;exitDx=0;exitDy=0;edgeStyle=elbowEdgeStyle;" parent="1" source="USNUs2RwjlwWKyY22RhR-16" target="M3-lLsWGSmPZNytgOBwi-1" edge="1">
                    <mxGeometry width="160" relative="1" as="geometry">
                        <mxPoint x="410" y="40" as="sourcePoint"/>
                        <mxPoint x="30" y="60" as="targetPoint"/>
                    </mxGeometry>
                </mxCell>
                <mxCell id="woEzXTU2Y_-W0Ke4EJwe-2" value="Jardin   " style="swimlane;fontStyle=1;align=center;verticalAlign=top;childLayout=stackLayout;horizontal=1;startSize=26;horizontalStack=0;resizeParent=1;resizeParentMax=0;resizeLast=0;collapsible=1;marginBottom=0;" parent="1" vertex="1">
                    <mxGeometry x="-20" y="310" width="160" height="160" as="geometry"/>
                </mxCell>
                <mxCell id="woEzXTU2Y_-W0Ke4EJwe-3" value="- superficie: float&#10;-plantas" style="text;strokeColor=none;fillColor=none;align=left;verticalAlign=top;spacingLeft=4;spacingRight=4;overflow=hidden;rotatable=0;points=[[0,0.5],[1,0.5]];portConstraint=eastwest;" parent="woEzXTU2Y_-W0Ke4EJwe-2" vertex="1">
                    <mxGeometry y="26" width="160" height="64" as="geometry"/>
                </mxCell>
                <mxCell id="woEzXTU2Y_-W0Ke4EJwe-4" value="" style="line;strokeWidth=1;fillColor=none;align=left;verticalAlign=middle;spacingTop=-1;spacingLeft=3;spacingRight=3;rotatable=0;labelPosition=right;points=[];portConstraint=eastwest;strokeColor=inherit;" parent="woEzXTU2Y_-W0Ke4EJwe-2" vertex="1">
                    <mxGeometry y="90" width="160" height="8" as="geometry"/>
                </mxCell>
                <mxCell id="woEzXTU2Y_-W0Ke4EJwe-5" value="+show()&#10;+ get_valor()" style="text;strokeColor=none;fillColor=none;align=left;verticalAlign=top;spacingLeft=4;spacingRight=4;overflow=hidden;rotatable=0;points=[[0,0.5],[1,0.5]];portConstraint=eastwest;" parent="woEzXTU2Y_-W0Ke4EJwe-2" vertex="1">
                    <mxGeometry y="98" width="160" height="62" as="geometry"/>
                </mxCell>
                <object label="&lt;p style=&quot;margin: 0px ; margin-top: 4px ; text-align: center&quot;&gt;&lt;b&gt;Propiedad&lt;/b&gt;&lt;/p&gt;&lt;hr size=&quot;1&quot;&gt;&lt;p style=&quot;margin: 0px ; margin-left: 4px&quot;&gt;&lt;span&gt;- descripcion: String&lt;/span&gt;&lt;/p&gt;&lt;p style=&quot;margin: 0px ; margin-left: 4px&quot;&gt;&lt;span&gt;- valor: Integer&lt;/span&gt;&lt;/p&gt;&lt;hr size=&quot;1&quot;&gt;&lt;p style=&quot;margin: 0px ; margin-left: 4px&quot;&gt;&lt;span&gt;+ show(): String&lt;/span&gt;&lt;br&gt;&lt;/p&gt;&lt;p style=&quot;margin: 0px ; margin-left: 4px&quot;&gt;+ get_valor(): Integer&lt;/p&gt;&lt;hr&gt;+ Propiedad()" Casa="" id="2">
                    <mxCell style="verticalAlign=top;align=left;overflow=fill;fontSize=12;fontFamily=Helvetica;html=1;strokeColor=default;whiteSpace=wrap;" vertex="1" parent="1">
                        <mxGeometry x="-40" y="-480" width="160" height="160" as="geometry"/>
                    </mxCell>
                </object>
                <mxCell id="9" value="&lt;p style=&quot;margin: 0px ; margin-top: 4px ; text-align: center&quot;&gt;&lt;i&gt;&amp;lt;&amp;lt;Interface&amp;gt;&amp;gt;&lt;/i&gt;&lt;br&gt;&lt;b&gt;Valorable&lt;/b&gt;&lt;/p&gt;&lt;hr size=&quot;1&quot;&gt;&lt;p style=&quot;margin: 0px ; margin-left: 4px&quot;&gt;+ show(): String&lt;br&gt;+ get_valor(): Integer&lt;/p&gt;" style="verticalAlign=top;align=left;overflow=fill;fontSize=12;fontFamily=Helvetica;html=1;" vertex="1" parent="1">
                    <mxGeometry x="-700" y="450" width="190" height="140" as="geometry"/>
                </mxCell>
                <mxCell id="10" value="" style="endArrow=block;dashed=1;endFill=0;endSize=12;html=1;targetPerimeterSpacing=2;strokeWidth=1;exitX=1;exitY=0.25;exitDx=0;exitDy=0;entryX=0.5;entryY=1;entryDx=0;entryDy=0;edgeStyle=orthogonalEdgeStyle;" edge="1" parent="1" source="9" target="M3-lLsWGSmPZNytgOBwi-19">
                    <mxGeometry width="160" relative="1" as="geometry">
                        <mxPoint x="-450" y="570" as="sourcePoint"/>
                        <mxPoint x="-290" y="570" as="targetPoint"/>
                    </mxGeometry>
                </mxCell>
                <mxCell id="11" value="" style="endArrow=block;dashed=1;endFill=0;endSize=12;html=1;targetPerimeterSpacing=2;strokeWidth=1;exitX=1;exitY=0.5;exitDx=0;exitDy=0;entryX=0.5;entryY=1;entryDx=0;entryDy=0;edgeStyle=orthogonalEdgeStyle;" edge="1" parent="1" source="9" target="M3-lLsWGSmPZNytgOBwi-6">
                    <mxGeometry width="160" relative="1" as="geometry">
                        <mxPoint x="-460" y="620" as="sourcePoint"/>
                        <mxPoint x="-300" y="620" as="targetPoint"/>
                    </mxGeometry>
                </mxCell>
                <mxCell id="12" value="" style="endArrow=block;dashed=1;endFill=0;endSize=12;html=1;targetPerimeterSpacing=2;strokeWidth=1;exitX=1;exitY=0.75;exitDx=0;exitDy=0;entryX=0.5;entryY=1;entryDx=0;entryDy=0;edgeStyle=orthogonalEdgeStyle;" edge="1" parent="1" source="9" target="woEzXTU2Y_-W0Ke4EJwe-2">
                    <mxGeometry width="160" relative="1" as="geometry">
                        <mxPoint x="-520" y="664" as="sourcePoint"/>
                        <mxPoint x="60" y="329" as="targetPoint"/>
                    </mxGeometry>
                </mxCell>
            </root>
        </mxGraphModel>
    </diagram>
</mxfile>